<svg width="474" height="76" viewBox="0 0 474 76" fill="none" xmlns="http://www.w3.org/2000/svg">
<rect x="0.5" y="28.5" width="473" height="47" rx="5.5" fill="white" stroke="#F3D1BF"/>
<path d="M20.696 57.16C19.88 57.16 19.1813 57.032 18.6 56.776C18.024 56.5147 17.5813 56.1227 17.272 55.6C16.9627 55.0773 16.808 54.4267 16.808 53.648C16.808 53.5413 16.808 53.4507 16.808 53.376C16.808 53.3013 16.808 53.2107 16.808 53.104H18.176C18.176 53.2053 18.176 53.2907 18.176 53.36C18.176 53.4293 18.176 53.5173 18.176 53.624C18.176 54.44 18.3893 55.0293 18.816 55.392C19.2427 55.7493 19.864 55.928 20.68 55.928C21.5227 55.928 22.16 55.784 22.592 55.496C23.024 55.208 23.24 54.7413 23.24 54.096C23.24 53.6427 23.1147 53.2667 22.864 52.968C22.6187 52.664 22.2773 52.408 21.84 52.2C21.4027 51.9867 20.8933 51.792 20.312 51.616C19.656 51.4133 19.0693 51.1573 18.552 50.848C18.04 50.5387 17.6347 50.1573 17.336 49.704C17.0427 49.2453 16.896 48.688 16.896 48.032C16.896 47.392 17.0507 46.8507 17.36 46.408C17.6747 45.9653 18.112 45.6293 18.672 45.4C19.232 45.1707 19.8827 45.056 20.624 45.056C21.408 45.056 22.088 45.1787 22.664 45.424C23.2453 45.664 23.6933 46.032 24.008 46.528C24.328 47.0187 24.488 47.6373 24.488 48.384C24.488 48.5013 24.488 48.6027 24.488 48.688C24.488 48.768 24.488 48.8667 24.488 48.984H23.12C23.12 48.8827 23.12 48.792 23.12 48.712C23.12 48.632 23.12 48.5413 23.12 48.44C23.12 47.6613 22.9093 47.1093 22.488 46.784C22.0667 46.4533 21.4533 46.288 20.648 46.288C19.8747 46.288 19.2773 46.424 18.856 46.696C18.4347 46.968 18.224 47.4133 18.224 48.032C18.224 48.496 18.352 48.88 18.608 49.184C18.8693 49.4827 19.224 49.7387 19.672 49.952C20.12 50.16 20.632 50.36 21.208 50.552C21.9067 50.7813 22.5067 51.0427 23.008 51.336C23.5147 51.624 23.9013 51.984 24.168 52.416C24.44 52.848 24.576 53.392 24.576 54.048C24.576 54.704 24.4187 55.264 24.104 55.728C23.7947 56.192 23.3493 56.5467 22.768 56.792C22.192 57.0373 21.5013 57.16 20.696 57.16ZM29.7506 57.152C29.1426 57.152 28.636 57.048 28.2306 56.84C27.8253 56.6267 27.5026 56.352 27.2626 56.016C27.028 55.68 26.86 55.3173 26.7586 54.928C26.6626 54.5333 26.6146 54.1547 26.6146 53.792C26.6146 53.5893 26.6146 53.3813 26.6146 53.168C26.6146 52.9493 26.6146 52.7307 26.6146 52.512V48.504H27.9826V52.336C27.9826 52.5333 27.9826 52.728 27.9826 52.92C27.9826 53.112 27.9826 53.2933 27.9826 53.464C27.9826 53.896 28.0413 54.296 28.1586 54.664C28.2813 55.032 28.492 55.3307 28.7906 55.56C29.0893 55.784 29.5 55.896 30.0226 55.896C30.5133 55.896 30.9426 55.7493 31.3106 55.456C31.6786 55.1573 31.9666 54.7867 32.1746 54.344C32.3826 53.896 32.4866 53.4507 32.4866 53.008L33.2786 53.336C33.2786 53.8053 33.196 54.2667 33.0306 54.72C32.8653 55.168 32.628 55.576 32.3186 55.944C32.0146 56.312 31.644 56.6053 31.2066 56.824C30.7746 57.0427 30.2893 57.152 29.7506 57.152ZM32.4866 57V48.504H33.8466V57H32.4866ZM40.3604 57.16C39.7044 57.16 39.091 57 38.5204 56.68C37.9497 56.3547 37.4857 55.9093 37.1284 55.344C36.7764 54.7787 36.6004 54.1333 36.6004 53.408C36.6004 53.392 36.6004 53.3787 36.6004 53.368C36.6004 53.3573 36.6004 53.344 36.6004 53.328L37.5764 53.304C37.5764 53.3147 37.5764 53.328 37.5764 53.344C37.5764 53.3547 37.5764 53.3653 37.5764 53.376C37.5764 53.8347 37.6964 54.2533 37.9364 54.632C38.1817 55.0107 38.5017 55.312 38.8964 55.536C39.291 55.76 39.715 55.872 40.1684 55.872C40.9204 55.872 41.5444 55.616 42.0404 55.104C42.5417 54.5867 42.7924 53.8 42.7924 52.744C42.7924 51.6827 42.5444 50.8987 42.0484 50.392C41.5524 49.88 40.9257 49.624 40.1684 49.624C39.715 49.624 39.291 49.736 38.8964 49.96C38.5017 50.1787 38.1817 50.4747 37.9364 50.848C37.6964 51.2213 37.5764 51.64 37.5764 52.104L36.6004 52.072C36.6004 51.3413 36.7764 50.6987 37.1284 50.144C37.4857 49.5893 37.9497 49.1573 38.5204 48.848C39.091 48.5333 39.7044 48.376 40.3604 48.376C41.0484 48.376 41.683 48.5467 42.2644 48.888C42.8457 49.224 43.3124 49.7173 43.6644 50.368C44.0164 51.0187 44.1924 51.8107 44.1924 52.744C44.1924 53.6933 44.019 54.4987 43.6724 55.16C43.3257 55.816 42.8617 56.3147 42.2804 56.656C41.699 56.992 41.059 57.16 40.3604 57.16ZM36.2084 57V44.496H37.5764V57H36.2084ZM44.9177 60.568C44.7684 60.568 44.6297 60.5627 44.5017 60.552C44.3737 60.5413 44.2724 60.528 44.1977 60.512V59.472C44.2724 59.4933 44.3764 59.512 44.5097 59.528C44.6377 59.544 44.7737 59.552 44.9177 59.552C45.2858 59.552 45.5764 59.496 45.7898 59.384C46.0031 59.272 46.1578 59.1253 46.2538 58.944C46.3551 58.768 46.4191 58.5707 46.4458 58.352C46.4778 58.1387 46.4938 57.928 46.4938 57.72V48.504H47.8538V57.776C47.8538 58.128 47.8191 58.4693 47.7498 58.8C47.6858 59.1307 47.5551 59.4293 47.3578 59.696C47.1604 59.9627 46.8671 60.1733 46.4778 60.328C46.0884 60.488 45.5684 60.568 44.9177 60.568ZM47.2057 46.552C46.9551 46.552 46.7364 46.4827 46.5498 46.344C46.3684 46.2 46.2778 46.0053 46.2778 45.76C46.2778 45.52 46.3684 45.3307 46.5498 45.192C46.7364 45.048 46.9551 44.976 47.2057 44.976C47.4564 44.976 47.6724 45.048 47.8538 45.192C48.0351 45.3307 48.1258 45.52 48.1258 45.76C48.1258 46.0053 48.0351 46.2 47.8538 46.344C47.6724 46.4827 47.4564 46.552 47.2057 46.552ZM50.8515 53.296V52.08H57.4195L57.1795 52.48C57.1795 52.448 57.1795 52.4187 57.1795 52.392C57.1795 52.36 57.1795 52.3307 57.1795 52.304C57.1795 51.8133 57.0755 51.3653 56.8675 50.96C56.6648 50.5493 56.3608 50.2213 55.9555 49.976C55.5502 49.7307 55.0488 49.608 54.4515 49.608C53.8488 49.608 53.3182 49.736 52.8595 49.992C52.4008 50.248 52.0435 50.6107 51.7875 51.08C51.5315 51.544 51.4035 52.0987 51.4035 52.744C51.4035 53.4 51.5262 53.9653 51.7715 54.44C52.0222 54.9147 52.3768 55.28 52.8355 55.536C53.2942 55.792 53.8382 55.92 54.4675 55.92C54.9155 55.92 55.3048 55.8747 55.6355 55.784C55.9662 55.688 56.2382 55.5627 56.4515 55.408C56.6702 55.248 56.8355 55.0747 56.9475 54.888C57.0595 54.7013 57.1262 54.5147 57.1475 54.328H58.5075C58.4808 54.6693 58.3742 55.008 58.1875 55.344C58.0008 55.68 57.7368 55.9867 57.3955 56.264C57.0542 56.536 56.6355 56.7547 56.1395 56.92C55.6435 57.0853 55.0728 57.168 54.4275 57.168C53.5742 57.168 52.8222 56.9813 52.1715 56.608C51.5208 56.2347 51.0088 55.7173 50.6355 55.056C50.2675 54.3947 50.0835 53.6347 50.0835 52.776C50.0835 51.9067 50.2702 51.144 50.6435 50.488C51.0168 49.8267 51.5315 49.3093 52.1875 48.936C52.8435 48.5627 53.5928 48.376 54.4355 48.376C55.2942 48.376 56.0382 48.5627 56.6675 48.936C57.2968 49.3093 57.7822 49.8213 58.1235 50.472C58.4648 51.1173 58.6355 51.8533 58.6355 52.68C58.6355 52.7653 58.6328 52.8773 58.6275 53.016C58.6222 53.1547 58.6142 53.248 58.6035 53.296H50.8515ZM64.7873 57.16C63.9766 57.16 63.2406 56.984 62.5793 56.632C61.9179 56.2747 61.3926 55.7653 61.0033 55.104C60.6193 54.4427 60.4273 53.656 60.4273 52.744C60.4273 51.832 60.6193 51.0507 61.0033 50.4C61.3926 49.744 61.9179 49.2427 62.5793 48.896C63.2406 48.5493 63.9766 48.376 64.7873 48.376C65.4059 48.376 65.9579 48.472 66.4433 48.664C66.9286 48.8507 67.3393 49.1013 67.6753 49.416C68.0113 49.7307 68.2673 50.0773 68.4433 50.456C68.6246 50.8293 68.7153 51.2027 68.7153 51.576C68.7153 51.5813 68.7153 51.5893 68.7153 51.6C68.7153 51.6107 68.7153 51.6213 68.7153 51.632H67.3633C67.3633 51.6053 67.3606 51.576 67.3553 51.544C67.3499 51.5067 67.3446 51.4693 67.3393 51.432C67.2966 51.0747 67.1606 50.7627 66.9313 50.496C66.7019 50.224 66.4033 50.0107 66.0353 49.856C65.6673 49.7013 65.2486 49.624 64.7793 49.624C64.2513 49.624 63.7606 49.7387 63.3073 49.968C62.8593 50.192 62.4966 50.536 62.2193 51C61.9473 51.4587 61.8113 52.04 61.8113 52.744C61.8113 53.4427 61.9473 54.0267 62.2193 54.496C62.4913 54.9653 62.8513 55.32 63.2993 55.56C63.7526 55.7947 64.2459 55.912 64.7793 55.912C65.3553 55.912 65.8299 55.8213 66.2033 55.64C66.5766 55.4587 66.8566 55.2187 67.0433 54.92C67.2353 54.616 67.3419 54.2907 67.3633 53.944H68.7153C68.7153 54.328 68.6299 54.712 68.4593 55.096C68.2886 55.4747 68.0379 55.8213 67.7073 56.136C67.3766 56.4453 66.9659 56.6933 66.4753 56.88C65.9899 57.0667 65.4273 57.16 64.7873 57.16ZM74.0215 57.128C73.7602 57.128 73.5042 57.0987 73.2535 57.04C73.0028 56.9813 72.7762 56.8773 72.5735 56.728C72.3762 56.5733 72.2188 56.3573 72.1015 56.08C71.9842 55.7973 71.9255 55.4347 71.9255 54.992C71.9255 54.88 71.9255 54.7653 71.9255 54.648C71.9255 54.5253 71.9255 54.3973 71.9255 54.264V49.704H69.8535V48.504H71.1815C71.3628 48.504 71.5042 48.4987 71.6055 48.488C71.7068 48.472 71.7788 48.4373 71.8215 48.384C71.8695 48.3253 71.8988 48.2373 71.9095 48.12C71.9202 47.9973 71.9255 47.8293 71.9255 47.616V45.688H73.2935V48.504H75.9495V49.704H73.2935V53.824C73.2935 53.9413 73.2935 54.056 73.2935 54.168C73.2935 54.28 73.2935 54.384 73.2935 54.48C73.2935 54.9333 73.3468 55.288 73.4535 55.544C73.5655 55.8 73.8135 55.928 74.1975 55.928C74.3522 55.928 74.4988 55.9147 74.6375 55.888C74.7762 55.8613 74.8802 55.8347 74.9495 55.808V56.992C74.8588 57.024 74.7308 57.0533 74.5655 57.08C74.4055 57.112 74.2242 57.128 74.0215 57.128Z" fill="#391400" fill-opacity="0.64"/>
<path d="M453 55L458 49H448L453 55Z" fill="#EF6D58"/>
</svg>
