<svg width="474" height="156" viewBox="0 0 474 156" fill="none" xmlns="http://www.w3.org/2000/svg">
<rect x="0.5" y="28.5" width="473" height="127" rx="5.5" fill="white" stroke="#F3D1BF"/>
<path d="M25.408 45.2H27.76V57H26.464V46.288L26.504 46.304L23.496 57H21.544L18.52 46.296L18.56 46.28V57H17.264V45.2H19.616L22.512 55.904H22.496L25.408 45.2ZM30.6953 53.296V52.08H37.2633L37.0233 52.48C37.0233 52.448 37.0233 52.4187 37.0233 52.392C37.0233 52.36 37.0233 52.3307 37.0233 52.304C37.0233 51.8133 36.9193 51.3653 36.7113 50.96C36.5086 50.5493 36.2046 50.2213 35.7993 49.976C35.3939 49.7307 34.8926 49.608 34.2953 49.608C33.6926 49.608 33.1619 49.736 32.7033 49.992C32.2446 50.248 31.8873 50.6107 31.6313 51.08C31.3753 51.544 31.2473 52.0987 31.2473 52.744C31.2473 53.4 31.3699 53.9653 31.6153 54.44C31.8659 54.9147 32.2206 55.28 32.6793 55.536C33.1379 55.792 33.6819 55.92 34.3113 55.92C34.7593 55.92 35.1486 55.8747 35.4793 55.784C35.8099 55.688 36.0819 55.5627 36.2953 55.408C36.5139 55.248 36.6793 55.0747 36.7913 54.888C36.9033 54.7013 36.9699 54.5147 36.9913 54.328H38.3513C38.3246 54.6693 38.2179 55.008 38.0312 55.344C37.8446 55.68 37.5806 55.9867 37.2393 56.264C36.8979 56.536 36.4793 56.7547 35.9833 56.92C35.4873 57.0853 34.9166 57.168 34.2713 57.168C33.4179 57.168 32.6659 56.9813 32.0153 56.608C31.3646 56.2347 30.8526 55.7173 30.4793 55.056C30.1113 54.3947 29.9273 53.6347 29.9273 52.776C29.9273 51.9067 30.1139 51.144 30.4873 50.488C30.8606 49.8267 31.3753 49.3093 32.0313 48.936C32.6873 48.5627 33.4366 48.376 34.2793 48.376C35.1379 48.376 35.8819 48.5627 36.5113 48.936C37.1406 49.3093 37.6259 49.8213 37.9673 50.472C38.3086 51.1173 38.4793 51.8533 38.4793 52.68C38.4793 52.7653 38.4766 52.8773 38.4713 53.016C38.4659 53.1547 38.4579 53.248 38.4473 53.296H30.6953ZM43.847 57.16C43.335 57.16 42.8603 57.1067 42.423 57C41.991 56.888 41.6123 56.728 41.287 56.52C40.967 56.3067 40.7163 56.0453 40.535 55.736C40.359 55.4267 40.271 55.072 40.271 54.672C40.271 54.6293 40.271 54.5867 40.271 54.544C40.271 54.496 40.271 54.456 40.271 54.424H41.639C41.639 54.456 41.639 54.4827 41.639 54.504C41.639 54.5253 41.639 54.5573 41.639 54.6C41.639 55.032 41.839 55.3627 42.239 55.592C42.639 55.816 43.1857 55.928 43.879 55.928C44.3057 55.928 44.687 55.8853 45.023 55.8C45.359 55.7147 45.623 55.584 45.815 55.408C46.0123 55.232 46.111 55.0107 46.111 54.744C46.111 54.3013 45.903 53.9867 45.487 53.8C45.0763 53.608 44.4603 53.4427 43.639 53.304C43.207 53.2293 42.7963 53.1333 42.407 53.016C42.0177 52.8933 41.671 52.736 41.367 52.544C41.0683 52.352 40.831 52.1147 40.655 51.832C40.4843 51.544 40.399 51.2 40.399 50.8C40.399 50.2827 40.551 49.8453 40.855 49.488C41.1643 49.1253 41.5803 48.8507 42.103 48.664C42.6257 48.472 43.207 48.376 43.847 48.376C44.4657 48.376 45.0363 48.4747 45.559 48.672C46.0817 48.8693 46.5003 49.1573 46.815 49.536C47.135 49.9093 47.295 50.3707 47.295 50.92C47.295 50.9413 47.295 50.968 47.295 51C47.295 51.0267 47.295 51.0533 47.295 51.08H45.935C45.935 51.0533 45.935 51.032 45.935 51.016C45.935 51 45.935 50.9813 45.935 50.96C45.935 50.6507 45.8363 50.3973 45.639 50.2C45.4417 49.9973 45.1857 49.848 44.871 49.752C44.5563 49.6507 44.2203 49.6 43.863 49.6C43.527 49.6 43.1963 49.6373 42.871 49.712C42.5457 49.7813 42.2763 49.8987 42.063 50.064C41.8497 50.2293 41.743 50.456 41.743 50.744C41.743 51.032 41.8417 51.264 42.039 51.44C42.2417 51.6107 42.5243 51.752 42.887 51.864C43.255 51.9707 43.687 52.0693 44.183 52.16C44.6257 52.24 45.0443 52.3413 45.439 52.464C45.8337 52.5813 46.1803 52.7333 46.479 52.92C46.783 53.1067 47.0203 53.344 47.191 53.632C47.367 53.9147 47.455 54.2613 47.455 54.672C47.455 55.088 47.359 55.4507 47.167 55.76C46.9803 56.0693 46.719 56.328 46.383 56.536C46.0523 56.744 45.6683 56.8987 45.231 57C44.799 57.1067 44.3377 57.16 43.847 57.16ZM52.8158 57.16C52.3038 57.16 51.8291 57.1067 51.3918 57C50.9598 56.888 50.5811 56.728 50.2558 56.52C49.9358 56.3067 49.6851 56.0453 49.5038 55.736C49.3278 55.4267 49.2398 55.072 49.2398 54.672C49.2398 54.6293 49.2398 54.5867 49.2398 54.544C49.2398 54.496 49.2398 54.456 49.2398 54.424H50.6078C50.6078 54.456 50.6078 54.4827 50.6078 54.504C50.6078 54.5253 50.6078 54.5573 50.6078 54.6C50.6078 55.032 50.8078 55.3627 51.2078 55.592C51.6078 55.816 52.1544 55.928 52.8478 55.928C53.2744 55.928 53.6558 55.8853 53.9918 55.8C54.3278 55.7147 54.5918 55.584 54.7838 55.408C54.9811 55.232 55.0798 55.0107 55.0798 54.744C55.0798 54.3013 54.8718 53.9867 54.4558 53.8C54.0451 53.608 53.4291 53.4427 52.6078 53.304C52.1758 53.2293 51.7651 53.1333 51.3758 53.016C50.9864 52.8933 50.6398 52.736 50.3358 52.544C50.0371 52.352 49.7998 52.1147 49.6238 51.832C49.4531 51.544 49.3678 51.2 49.3678 50.8C49.3678 50.2827 49.5198 49.8453 49.8238 49.488C50.1331 49.1253 50.5491 48.8507 51.0718 48.664C51.5944 48.472 52.1758 48.376 52.8158 48.376C53.4344 48.376 54.0051 48.4747 54.5278 48.672C55.0504 48.8693 55.4691 49.1573 55.7838 49.536C56.1038 49.9093 56.2638 50.3707 56.2638 50.92C56.2638 50.9413 56.2638 50.968 56.2638 51C56.2638 51.0267 56.2638 51.0533 56.2638 51.08H54.9038C54.9038 51.0533 54.9038 51.032 54.9038 51.016C54.9038 51 54.9038 50.9813 54.9038 50.96C54.9038 50.6507 54.8051 50.3973 54.6078 50.2C54.4104 49.9973 54.1544 49.848 53.8398 49.752C53.5251 49.6507 53.1891 49.6 52.8318 49.6C52.4958 49.6 52.1651 49.6373 51.8398 49.712C51.5144 49.7813 51.2451 49.8987 51.0318 50.064C50.8184 50.2293 50.7118 50.456 50.7118 50.744C50.7118 51.032 50.8104 51.264 51.0078 51.44C51.2104 51.6107 51.4931 51.752 51.8558 51.864C52.2238 51.9707 52.6558 52.0693 53.1518 52.16C53.5944 52.24 54.0131 52.3413 54.4078 52.464C54.8024 52.5813 55.1491 52.7333 55.4478 52.92C55.7518 53.1067 55.9891 53.344 56.1598 53.632C56.3358 53.9147 56.4237 54.2613 56.4237 54.672C56.4237 55.088 56.3278 55.4507 56.1358 55.76C55.9491 56.0693 55.6878 56.328 55.3518 56.536C55.0211 56.744 54.6371 56.8987 54.1998 57C53.7678 57.1067 53.3064 57.16 52.8158 57.16ZM61.5045 57.16C60.8592 57.16 60.2938 57.0587 59.8085 56.856C59.3285 56.6533 58.9552 56.3627 58.6885 55.984C58.4218 55.6 58.2885 55.1413 58.2885 54.608C58.2885 54.0533 58.4325 53.592 58.7205 53.224C59.0085 52.8507 59.4138 52.56 59.9365 52.352C60.4592 52.144 61.0672 52.0053 61.7605 51.936C62.8058 51.8293 63.5498 51.7253 63.9925 51.624C64.4352 51.5173 64.6565 51.3467 64.6565 51.112C64.6565 51.1067 64.6565 51.104 64.6565 51.104C64.6565 51.0987 64.6565 51.0933 64.6565 51.088C64.6565 50.5973 64.4565 50.232 64.0565 49.992C63.6565 49.7467 63.0778 49.624 62.3205 49.624C61.5312 49.624 60.9178 49.7627 60.4805 50.04C60.0432 50.312 59.8245 50.7547 59.8245 51.368H58.4805C58.4805 50.7333 58.6432 50.1947 58.9685 49.752C59.2938 49.304 59.7445 48.9627 60.3205 48.728C60.9018 48.4933 61.5712 48.376 62.3285 48.376C63.0218 48.376 63.6458 48.4827 64.2005 48.696C64.7605 48.904 65.2032 49.216 65.5285 49.632C65.8592 50.0427 66.0245 50.552 66.0245 51.16C66.0245 51.272 66.0245 51.384 66.0245 51.496C66.0245 51.6027 66.0245 51.712 66.0245 51.824V55.4C66.0245 55.5867 66.0325 55.768 66.0485 55.944C66.0645 56.12 66.0912 56.2747 66.1285 56.408C66.1765 56.568 66.2298 56.6987 66.2885 56.8C66.3472 56.896 66.3952 56.9627 66.4325 57H65.0645C65.0378 56.9733 64.9978 56.912 64.9445 56.816C64.8912 56.7147 64.8405 56.5973 64.7925 56.464C64.7552 56.3573 64.7258 56.224 64.7045 56.064C64.6832 55.8987 64.6725 55.728 64.6725 55.552L64.8965 55.704C64.7312 55.992 64.4885 56.2453 64.1685 56.464C63.8538 56.6827 63.4725 56.8533 63.0245 56.976C62.5765 57.0987 62.0698 57.16 61.5045 57.16ZM61.7205 55.936C62.2698 55.936 62.7658 55.8533 63.2085 55.688C63.6512 55.5173 64.0032 55.2667 64.2645 54.936C64.5258 54.6053 64.6565 54.1947 64.6565 53.704V52.016L64.9605 52.528C64.6192 52.6613 64.1925 52.7707 63.6805 52.856C63.1738 52.936 62.6432 53.0027 62.0885 53.056C61.2832 53.1307 60.6752 53.272 60.2645 53.48C59.8592 53.688 59.6565 54.0373 59.6565 54.528C59.6565 54.992 59.8245 55.344 60.1605 55.584C60.4965 55.8187 61.0165 55.936 61.7205 55.936ZM73.7105 56.48C74.1692 56.5173 74.5718 56.6027 74.9185 56.736C75.2705 56.864 75.5452 57.0533 75.7425 57.304C75.9398 57.56 76.0385 57.8933 76.0385 58.304C76.0385 58.7573 75.8838 59.1573 75.5745 59.504C75.2652 59.856 74.7958 60.1307 74.1665 60.328C73.5372 60.5253 72.7452 60.624 71.7905 60.624C70.4412 60.624 69.4225 60.4267 68.7345 60.032C68.0465 59.6427 67.7025 59.1093 67.7025 58.432C67.7025 58.2187 67.7265 58.0293 67.7745 57.864C67.8278 57.704 67.8865 57.5733 67.9505 57.472L69.2465 57.664C69.2038 57.7227 69.1612 57.8107 69.1185 57.928C69.0812 58.0507 69.0625 58.192 69.0625 58.352C69.0625 58.7787 69.3052 59.0773 69.7905 59.248C70.2758 59.424 70.9638 59.512 71.8545 59.512C72.5212 59.512 73.0678 59.4667 73.4945 59.376C73.9212 59.2853 74.2385 59.1547 74.4465 58.984C74.6545 58.8133 74.7585 58.6133 74.7585 58.384C74.7585 58.0373 74.6118 57.8213 74.3185 57.736C74.0305 57.656 73.6732 57.6 73.2465 57.568L70.0145 57.328C69.4758 57.2853 69.0358 57.12 68.6945 56.832C68.3585 56.5387 68.1905 56.184 68.1905 55.768C68.1905 55.512 68.2518 55.2693 68.3745 55.04C68.5025 54.8107 68.6492 54.6187 68.8145 54.464C68.9852 54.304 69.1372 54.208 69.2705 54.176L70.3425 54.664C70.2092 54.6853 70.0438 54.7787 69.8465 54.944C69.6545 55.104 69.5585 55.2933 69.5585 55.512C69.5585 55.7093 69.6358 55.872 69.7905 56C69.9452 56.1227 70.2518 56.2027 70.7105 56.24L73.7105 56.48ZM74.8865 48.504H76.1665L75.6385 51.848C75.5425 52.472 75.3425 53.0373 75.0385 53.544C74.7345 54.0453 74.3185 54.4453 73.7905 54.744C73.2678 55.0373 72.6198 55.184 71.8465 55.184C71.0412 55.184 70.3532 55.0373 69.7825 54.744C69.2118 54.4507 68.7745 54.0507 68.4705 53.544C68.1665 53.032 68.0145 52.456 68.0145 51.816C68.0145 51.1653 68.1718 50.5813 68.4865 50.064C68.8065 49.5413 69.2492 49.1307 69.8145 48.832C70.3798 48.528 71.0278 48.376 71.7585 48.376C72.4145 48.376 72.9878 48.4907 73.4785 48.72C73.9692 48.944 74.3558 49.2267 74.6385 49.568C74.9265 49.9093 75.0865 50.2533 75.1185 50.6L74.6065 50.632L74.8865 48.504ZM71.8385 53.968C72.3558 53.968 72.7985 53.8827 73.1665 53.712C73.5398 53.5413 73.8252 53.2933 74.0225 52.968C74.2252 52.6427 74.3265 52.248 74.3265 51.784C74.3265 51.336 74.2252 50.9493 74.0225 50.624C73.8252 50.2933 73.5398 50.04 73.1665 49.864C72.7985 49.6827 72.3585 49.592 71.8465 49.592C71.3558 49.592 70.9212 49.6853 70.5425 49.872C70.1692 50.0533 69.8758 50.3093 69.6625 50.64C69.4545 50.9707 69.3505 51.36 69.3505 51.808C69.3505 52.2613 69.4492 52.6507 69.6465 52.976C69.8492 53.296 70.1345 53.5413 70.5025 53.712C70.8758 53.8827 71.3212 53.968 71.8385 53.968ZM78.0703 53.296V52.08H84.6383L84.3983 52.48C84.3983 52.448 84.3983 52.4187 84.3983 52.392C84.3983 52.36 84.3983 52.3307 84.3983 52.304C84.3983 51.8133 84.2943 51.3653 84.0863 50.96C83.8836 50.5493 83.5796 50.2213 83.1743 49.976C82.7689 49.7307 82.2676 49.608 81.6703 49.608C81.0676 49.608 80.5369 49.736 80.0783 49.992C79.6196 50.248 79.2623 50.6107 79.0063 51.08C78.7503 51.544 78.6223 52.0987 78.6223 52.744C78.6223 53.4 78.7449 53.9653 78.9903 54.44C79.2409 54.9147 79.5956 55.28 80.0543 55.536C80.5129 55.792 81.0569 55.92 81.6863 55.92C82.1343 55.92 82.5236 55.8747 82.8543 55.784C83.1849 55.688 83.4569 55.5627 83.6703 55.408C83.8889 55.248 84.0543 55.0747 84.1663 54.888C84.2783 54.7013 84.3449 54.5147 84.3663 54.328H85.7263C85.6996 54.6693 85.5929 55.008 85.4062 55.344C85.2196 55.68 84.9556 55.9867 84.6143 56.264C84.2729 56.536 83.8543 56.7547 83.3583 56.92C82.8623 57.0853 82.2916 57.168 81.6463 57.168C80.7929 57.168 80.0409 56.9813 79.3903 56.608C78.7396 56.2347 78.2276 55.7173 77.8543 55.056C77.4863 54.3947 77.3023 53.6347 77.3023 52.776C77.3023 51.9067 77.4889 51.144 77.8623 50.488C78.2356 49.8267 78.7503 49.3093 79.4063 48.936C80.0623 48.5627 80.8116 48.376 81.6543 48.376C82.5129 48.376 83.2569 48.5627 83.8863 48.936C84.5156 49.3093 85.0009 49.8213 85.3423 50.472C85.6836 51.1173 85.8543 51.8533 85.8543 52.68C85.8543 52.7653 85.8516 52.8773 85.8463 53.016C85.8409 53.1547 85.8329 53.248 85.8223 53.296H78.0703Z" fill="#391400" fill-opacity="0.64"/>
</svg>
