<svg width="474" height="76" viewBox="0 0 474 76" fill="none" xmlns="http://www.w3.org/2000/svg">
<rect x="0.5" y="28.5" width="473" height="47" rx="5.5" fill="white" stroke="#F3D1BF"/>
<path d="M24.584 45.2L21.28 52.896V57H19.912V52.896L16.624 45.2H18.064L20.888 52.04H20.312L23.128 45.2H24.584ZM29.248 57.152C28.3947 57.152 27.64 56.9627 26.984 56.584C26.3333 56.2 25.8213 55.6773 25.448 55.016C25.08 54.3493 24.896 53.592 24.896 52.744C24.896 51.896 25.08 51.144 25.448 50.488C25.8213 49.832 26.3333 49.3173 26.984 48.944C27.64 48.5707 28.3947 48.384 29.248 48.384C30.1013 48.384 30.8533 48.5707 31.504 48.944C32.16 49.3173 32.672 49.832 33.04 50.488C33.4133 51.144 33.6 51.896 33.6 52.744C33.6 53.592 33.4133 54.3493 33.04 55.016C32.672 55.6773 32.16 56.2 31.504 56.584C30.8533 56.9627 30.1013 57.152 29.248 57.152ZM29.248 55.904C29.8347 55.904 30.352 55.7733 30.8 55.512C31.248 55.2507 31.5973 54.8827 31.848 54.408C32.104 53.9333 32.232 53.3787 32.232 52.744C32.232 52.1093 32.104 51.56 31.848 51.096C31.5973 50.6267 31.248 50.2667 30.8 50.016C30.352 49.76 29.8347 49.632 29.248 49.632C28.6667 49.632 28.1493 49.76 27.696 50.016C27.248 50.2667 26.896 50.6267 26.64 51.096C26.3893 51.56 26.264 52.1093 26.264 52.744C26.264 53.3787 26.3893 53.9333 26.64 54.408C26.896 54.8827 27.248 55.2507 27.696 55.512C28.1493 55.7733 28.6667 55.904 29.248 55.904ZM38.86 57.152C38.252 57.152 37.7453 57.048 37.34 56.84C36.9347 56.6267 36.612 56.352 36.372 56.016C36.1373 55.68 35.9693 55.3173 35.868 54.928C35.772 54.5333 35.724 54.1547 35.724 53.792C35.724 53.5893 35.724 53.3813 35.724 53.168C35.724 52.9493 35.724 52.7307 35.724 52.512V48.504H37.092V52.336C37.092 52.5333 37.092 52.728 37.092 52.92C37.092 53.112 37.092 53.2933 37.092 53.464C37.092 53.896 37.1507 54.296 37.268 54.664C37.3907 55.032 37.6013 55.3307 37.9 55.56C38.1987 55.784 38.6093 55.896 39.132 55.896C39.6227 55.896 40.052 55.7493 40.42 55.456C40.788 55.1573 41.076 54.7867 41.284 54.344C41.492 53.896 41.596 53.4507 41.596 53.008L42.388 53.336C42.388 53.8053 42.3053 54.2667 42.14 54.72C41.9747 55.168 41.7373 55.576 41.428 55.944C41.124 56.312 40.7533 56.6053 40.316 56.824C39.884 57.0427 39.3987 57.152 38.86 57.152ZM41.596 57V48.504H42.956V57H41.596ZM45.3178 57V48.504H46.6778V51.112L46.2298 50.952C46.2618 50.6373 46.3418 50.328 46.4698 50.024C46.5978 49.7147 46.7738 49.4373 46.9978 49.192C47.2271 48.9413 47.5124 48.744 47.8538 48.6C48.1951 48.4507 48.5951 48.376 49.0538 48.376C49.3951 48.376 49.6724 48.4053 49.8858 48.464C50.1044 48.5173 50.2404 48.56 50.2938 48.592L49.9418 49.928C49.8884 49.8907 49.7791 49.8427 49.6138 49.784C49.4538 49.7253 49.2244 49.696 48.9258 49.696C48.4831 49.696 48.1151 49.776 47.8218 49.936C47.5338 50.096 47.3044 50.3093 47.1338 50.576C46.9684 50.8373 46.8511 51.1227 46.7818 51.432C46.7124 51.7413 46.6778 52.048 46.6778 52.352V57H45.3178ZM56.1953 53.296V52.08H62.7633L62.5233 52.48C62.5233 52.448 62.5233 52.4187 62.5233 52.392C62.5233 52.36 62.5233 52.3307 62.5233 52.304C62.5233 51.8133 62.4193 51.3653 62.2113 50.96C62.0086 50.5493 61.7046 50.2213 61.2993 49.976C60.8939 49.7307 60.3926 49.608 59.7953 49.608C59.1926 49.608 58.6619 49.736 58.2033 49.992C57.7446 50.248 57.3873 50.6107 57.1313 51.08C56.8753 51.544 56.7473 52.0987 56.7473 52.744C56.7473 53.4 56.8699 53.9653 57.1153 54.44C57.3659 54.9147 57.7206 55.28 58.1793 55.536C58.6379 55.792 59.1819 55.92 59.8113 55.92C60.2593 55.92 60.6486 55.8747 60.9793 55.784C61.3099 55.688 61.5819 55.5627 61.7953 55.408C62.0139 55.248 62.1793 55.0747 62.2913 54.888C62.4033 54.7013 62.4699 54.5147 62.4913 54.328H63.8513C63.8246 54.6693 63.7179 55.008 63.5312 55.344C63.3446 55.68 63.0806 55.9867 62.7393 56.264C62.3979 56.536 61.9793 56.7547 61.4833 56.92C60.9873 57.0853 60.4166 57.168 59.7713 57.168C58.9179 57.168 58.1659 56.9813 57.5153 56.608C56.8646 56.2347 56.3526 55.7173 55.9793 55.056C55.6113 54.3947 55.4273 53.6347 55.4273 52.776C55.4273 51.9067 55.6139 51.144 55.9873 50.488C56.3606 49.8267 56.8753 49.3093 57.5313 48.936C58.1873 48.5627 58.9366 48.376 59.7793 48.376C60.6379 48.376 61.3819 48.5627 62.0113 48.936C62.6406 49.3093 63.1259 49.8213 63.4673 50.472C63.8086 51.1173 63.9793 51.8533 63.9793 52.68C63.9793 52.7653 63.9766 52.8773 63.9713 53.016C63.9659 53.1547 63.9579 53.248 63.9473 53.296H56.1953ZM71.323 57V53.248C71.323 52.9173 71.323 52.632 71.323 52.392C71.323 52.1467 71.323 51.9413 71.323 51.776C71.323 51.568 71.307 51.344 71.275 51.104C71.2483 50.8587 71.1817 50.6293 71.075 50.416C70.9683 50.1973 70.8003 50.0187 70.571 49.88C70.347 49.7413 70.035 49.672 69.635 49.672C69.2297 49.672 68.8883 49.752 68.611 49.912C68.3337 50.0667 68.1097 50.272 67.939 50.528C67.7683 50.784 67.6457 51.0667 67.571 51.376C67.4963 51.68 67.459 51.9813 67.459 52.28L66.691 51.968C66.691 51.328 66.8243 50.736 67.091 50.192C67.3577 49.648 67.731 49.2107 68.211 48.88C68.6963 48.544 69.2643 48.376 69.915 48.376C70.5603 48.376 71.0857 48.5067 71.491 48.768C71.8963 49.0293 72.195 49.3893 72.387 49.848C72.579 50.3067 72.675 50.8347 72.675 51.432C72.675 51.6453 72.675 51.92 72.675 52.256C72.675 52.5867 72.675 52.9653 72.675 53.392V57H71.323ZM66.099 57V48.504H67.459V57H66.099ZM76.531 57V53.248C76.531 52.8853 76.531 52.5867 76.531 52.352C76.531 52.112 76.531 51.9093 76.531 51.744C76.531 51.536 76.5177 51.312 76.491 51.072C76.4643 50.832 76.3977 50.608 76.291 50.4C76.1843 50.1867 76.0137 50.0133 75.779 49.88C75.5497 49.7413 75.227 49.672 74.811 49.672C74.4003 49.672 74.0563 49.7493 73.779 49.904C73.507 50.0587 73.2883 50.2613 73.123 50.512C72.963 50.7627 72.8483 51.0347 72.779 51.328C72.7097 51.616 72.675 51.8933 72.675 52.16L71.907 51.864C71.907 51.256 72.035 50.688 72.291 50.16C72.5523 49.6267 72.9203 49.1973 73.395 48.872C73.875 48.5413 74.443 48.376 75.099 48.376C75.7123 48.376 76.2243 48.496 76.635 48.736C77.051 48.976 77.363 49.3147 77.571 49.752C77.7843 50.184 77.891 50.6987 77.891 51.296C77.891 51.52 77.891 51.7973 77.891 52.128C77.891 52.4587 77.891 52.832 77.891 53.248V57H76.531ZM83.2233 57.16C82.5779 57.16 82.0126 57.0587 81.5273 56.856C81.0473 56.6533 80.6739 56.3627 80.4073 55.984C80.1406 55.6 80.0073 55.1413 80.0073 54.608C80.0073 54.0533 80.1513 53.592 80.4393 53.224C80.7273 52.8507 81.1326 52.56 81.6553 52.352C82.1779 52.144 82.7859 52.0053 83.4793 51.936C84.5246 51.8293 85.2686 51.7253 85.7113 51.624C86.1539 51.5173 86.3753 51.3467 86.3753 51.112C86.3753 51.1067 86.3753 51.104 86.3753 51.104C86.3753 51.0987 86.3753 51.0933 86.3753 51.088C86.3753 50.5973 86.1753 50.232 85.7753 49.992C85.3753 49.7467 84.7966 49.624 84.0393 49.624C83.2499 49.624 82.6366 49.7627 82.1993 50.04C81.7619 50.312 81.5433 50.7547 81.5433 51.368H80.1993C80.1993 50.7333 80.3619 50.1947 80.6873 49.752C81.0126 49.304 81.4633 48.9627 82.0393 48.728C82.6206 48.4933 83.2899 48.376 84.0473 48.376C84.7406 48.376 85.3646 48.4827 85.9193 48.696C86.4793 48.904 86.9219 49.216 87.2473 49.632C87.5779 50.0427 87.7433 50.552 87.7433 51.16C87.7433 51.272 87.7433 51.384 87.7433 51.496C87.7433 51.6027 87.7433 51.712 87.7433 51.824V55.4C87.7433 55.5867 87.7513 55.768 87.7673 55.944C87.7833 56.12 87.8099 56.2747 87.8472 56.408C87.8953 56.568 87.9486 56.6987 88.0073 56.8C88.0659 56.896 88.1139 56.9627 88.1513 57H86.7833C86.7566 56.9733 86.7166 56.912 86.6633 56.816C86.6099 56.7147 86.5593 56.5973 86.5113 56.464C86.4739 56.3573 86.4446 56.224 86.4233 56.064C86.4019 55.8987 86.3913 55.728 86.3913 55.552L86.6153 55.704C86.4499 55.992 86.2073 56.2453 85.8873 56.464C85.5726 56.6827 85.1913 56.8533 84.7433 56.976C84.2953 57.0987 83.7886 57.16 83.2233 57.16ZM83.4392 55.936C83.9886 55.936 84.4846 55.8533 84.9273 55.688C85.3699 55.5173 85.7219 55.2667 85.9833 54.936C86.2446 54.6053 86.3753 54.1947 86.3753 53.704V52.016L86.6793 52.528C86.3379 52.6613 85.9113 52.7707 85.3993 52.856C84.8926 52.936 84.3619 53.0027 83.8073 53.056C83.0019 53.1307 82.3939 53.272 81.9833 53.48C81.5779 53.688 81.3753 54.0373 81.3753 54.528C81.3753 54.992 81.5433 55.344 81.8793 55.584C82.2153 55.8187 82.7353 55.936 83.4392 55.936ZM90.0853 57V48.504H91.4293V57H90.0853ZM90.7653 46.552C90.5146 46.552 90.2959 46.4827 90.1093 46.344C89.9279 46.2 89.8372 46.0053 89.8372 45.76C89.8372 45.52 89.9279 45.3307 90.1093 45.192C90.2959 45.048 90.5146 44.976 90.7653 44.976C91.0159 44.976 91.2319 45.048 91.4133 45.192C91.5946 45.3307 91.6853 45.52 91.6853 45.76C91.6853 46.0053 91.5946 46.2 91.4133 46.344C91.2319 46.4827 91.0159 46.552 90.7653 46.552ZM95.4224 44.496V57H94.0784V44.496H95.4224Z" fill="#391400" fill-opacity="0.64"/>
</svg>
